<svg width="41" height="41" viewBox="0 0 41 41" fill="#fff" xmlns="http://www.w3.org/2000/svg">
<path d="M32.5918 0H8.4082C3.77192 0 0 3.77192 0 8.4082V32.5918C0 37.2281 3.77192 41 8.4082 41H32.5918C37.2281 41 41 37.2281 41 32.5918V8.4082C41 3.77192 37.2281 0 32.5918 0ZM38.5977 32.5918C38.5977 35.9034 35.9034 38.5977 32.5918 38.5977H8.4082C5.09657 38.5977 2.40234 35.9034 2.40234 32.5918V8.4082C2.40234 5.09657 5.09657 2.40234 8.4082 2.40234H32.5918C35.9034 2.40234 38.5977 5.09657 38.5977 8.4082V32.5918Z" />
<path d="M24.4756 9.8921C24.3371 9.3756 24.0059 8.94382 23.5428 8.67652C22.587 8.12462 21.3602 8.45318 20.8081 9.40931L20.5 9.94295L20.1919 9.40923C19.6399 8.45334 18.4132 8.12462 17.4572 8.67644H17.4571C16.5011 9.22841 16.1725 10.4551 16.7244 11.4112L18.1883 13.9468L12.7867 23.3027H8.84863C7.74476 23.3027 6.84668 24.2008 6.84668 25.3047C6.84668 26.4085 7.74476 27.3066 8.84863 27.3066H24.0523L21.7406 23.3027H17.41L24.2755 11.4113C24.5429 10.9482 24.614 10.4086 24.4756 9.8921Z" />
<path d="M32.1514 23.3026H28.2133L23.7364 15.5483L21.4247 19.5522L28.3758 31.5918C28.6432 32.055 29.0748 32.3863 29.5915 32.5247C29.764 32.5709 29.939 32.5938 30.1129 32.5938C30.4598 32.5938 30.8022 32.5029 31.1108 32.3247C32.0667 31.7727 32.3954 30.5459 31.8434 29.59L30.5249 27.3065H32.1514C33.2552 27.3065 34.1533 26.4085 34.1533 25.3046C34.1533 24.2007 33.2552 23.3026 32.1514 23.3026Z" />
<path d="M9.55045 28.9082L9.15671 29.5901C8.60481 30.5461 8.93353 31.7729 9.8895 32.3248C10.204 32.5063 10.5477 32.5927 10.8871 32.5926C11.5795 32.5926 12.2538 32.2335 12.6242 31.592L14.1738 28.9082H9.55045Z" />
</svg>
