<svg width="115" height="174" viewBox="0 0 115 174" fill="none" xmlns="http://www.w3.org/2000/svg">
<path d="M50.5373 19.4739C51.8667 20.09 52.958 19.9295 53.1621 19.609C53.5233 19.0626 52.312 17.8851 51.5426 17.3596C50.4981 16.6411 49.4728 16.9004 49.1938 17.5107C48.9005 18.1463 49.4257 18.9556 50.5373 19.4739Z" fill="url(#paint0_linear)"/>
<path d="M65.3965 34.1546C63.9383 33.1405 62.4312 33.0219 62.0444 33.8957C61.6576 34.7695 62.5215 36.3033 63.9885 37.321C65.4486 38.3254 66.9538 38.4536 67.3406 37.5798C67.7274 36.706 66.8528 35.1783 65.3965 34.1546Z" fill="url(#paint1_linear)"/>
<path d="M80.671 39.969C80.442 38.2187 79.514 36.8168 78.6597 36.8405C77.8054 36.8641 77.3321 38.3074 77.5905 40.0587C77.8489 41.8101 78.7754 43.3748 79.5926 43.1835C80.2954 43.0219 80.9139 41.8013 80.671 39.969Z" fill="url(#paint2_linear)"/>
<path d="M77.0433 57.2963C76.3127 58.2515 76.6812 59.6955 77.4622 60.6918C78.4733 61.9936 80.0135 62.6404 80.3959 62.3502C80.9047 61.9521 80.7184 60.964 79.7647 59.0594C79.0153 57.5456 77.4765 56.7402 77.0433 57.2963Z" fill="url(#paint3_linear)"/>
<path d="M89.166 78.2769C89.9727 78.8011 91.1857 77.5158 91.6145 75.6936C92.0706 73.7288 91.5626 72.0096 90.6065 71.5894C89.6484 71.1793 88.633 72.3691 88.156 74.1829C87.7731 75.6618 88.2338 77.6799 89.166 78.2769Z" fill="url(#paint4_linear)"/>
<path d="M80.0914 85.7334C79.291 85.7994 78.904 87.208 79.2245 88.8825C79.547 90.5468 80.4544 91.8292 81.2548 91.7632C82.0571 91.687 82.4441 90.2784 82.1216 88.614C81.7992 86.9496 80.8937 85.6572 80.0914 85.7334Z" fill="url(#paint5_linear)"/>
<path d="M86.4084 114.3C87.2606 113.363 87.699 112.138 87.0855 111.619C86.2788 110.934 85.2565 111.176 84.4563 111.995C83.5808 112.901 83.4213 114.25 83.8169 114.735C84.2145 115.21 85.5581 115.228 86.4084 114.3Z" fill="url(#paint6_linear)"/>
<path d="M74.7468 120.22C74.913 118.675 74.4232 117.227 73.633 116.984C72.8428 116.74 72.063 117.795 71.8949 119.349C71.7267 120.904 72.2184 122.342 73.0086 122.585C73.7988 122.829 74.5694 121.77 74.7468 120.22Z" fill="url(#paint7_linear)"/>
<path d="M56.8373 138.402C57.8996 138.733 58.9631 137.29 59.1844 135.198C59.4169 133.099 58.7389 131.125 57.6767 130.793C56.6125 130.472 55.5509 131.905 55.3164 134.014C55.0951 136.106 55.7658 138.066 56.8373 138.402Z" fill="url(#paint8_linear)"/>
<path d="M55.6301 144.67C54.4132 143.816 53.4417 139.329 53.3555 137.054C53.2226 133.711 55.0538 126.557 59.2494 129.12C62.3241 131.01 62.1108 138.717 61.0287 141.404C59.7563 144.556 57.585 144.939 56.2536 145.098C56.2536 145.098 56.0594 146.002 55.2174 147.076C54.8942 147.497 54.672 147.761 54.5286 147.825L53.943 147.776C55.1489 146.96 55.6301 144.67 55.6301 144.67ZM56.7086 140.745C58.2147 141.198 59.7021 139.181 60.0298 136.222C60.3574 133.264 59.3984 130.493 57.8923 130.041C56.3881 129.578 54.8893 131.601 54.5617 134.56C54.2454 137.512 55.2044 140.282 56.7086 140.745Z" fill="url(#paint9_linear)"/>
<path d="M97.2168 80.4163C94.4484 87.7602 92.1243 88.5842 90.9845 90.3038C90.0444 91.7553 89.7354 92.6993 89.1547 94.3404C88.7631 95.4581 86.149 98.9907 85.003 100.173C84.7596 102.017 84.4007 103.792 83.894 105.408C84.811 103.871 86.0721 102.397 87.2108 101.408C90.1494 98.8693 93.5581 99.7734 97.0359 100.575C94.832 101.96 95.8526 104.852 93.2081 106.059C89.825 107.609 85.0293 107.233 82.6975 110.739C83.5209 108.345 85.8968 107.302 87.8875 106.255C90.8447 104.706 92.9905 103.832 94.9709 100.871C92.9021 100.773 90.2535 100.603 88.3706 101.552C86.8414 102.306 84.9182 104.449 83.7691 106.787C83.1324 108.1 82.9273 109.381 82.6864 110.745C82.6969 108.981 82.5138 108.438 83.0065 107.154C83.0708 106.973 83.1665 106.782 83.2491 106.609C83.6573 105.094 83.963 103.494 84.1991 101.844C84.5869 97.8981 82.1237 95.5664 82.1237 95.5664C80.2538 94.065 78.8047 93.1055 77.7406 90.1307C77.1204 88.4057 76.8649 85.0827 77.6118 83.6073C79.6818 79.5046 83.4107 84.118 83.9856 87.789C84.448 90.6503 83.6802 93.0121 82.8723 95.3248C83.2921 96.1828 84.1302 97.8545 84.5204 99.3334C85.2669 92.0086 84.9087 84.148 85.3581 79.1034C85.1389 83.3576 86.0062 92.1779 85.0466 99.8416C86.1323 97.7836 86.3532 94.5559 86.7494 92.327C87.1843 89.8955 88.2077 87.8012 89.7573 86.2152C91.3199 84.6127 94.9039 83.6675 97.8334 78.0695C97.6813 82.6456 96.1883 86.7317 95.404 89.6978C94.5601 92.9235 92.4356 96.5349 89.778 97.7582C88.5084 98.3448 86.9837 98.4022 86.1243 99.69C87.195 97.6586 88.746 96.5315 90.3922 95.0612C93.1723 92.5236 95.9294 86.2228 97.2168 80.4163ZM82.4464 88.0259C81.9766 85.5654 80.6374 83.6683 79.4495 83.7752C78.2617 83.8821 77.6862 85.9619 78.1671 88.4161C78.6388 90.8666 79.9853 92.7774 81.1659 92.6566C82.3518 92.5599 82.9273 90.4801 82.4464 88.0259Z" fill="url(#paint10_linear)"/>
<path d="M64.377 124.692C65.3289 123.118 68.2493 121.418 67.9413 118.482C68.5356 119.454 69.1062 120.187 69.4897 121.693C68.9019 116.966 66.1204 110.03 62.6008 108.665C65.7695 115.279 62.3405 119.747 64.377 124.692Z" fill="url(#paint11_linear)"/>
<path d="M69.3205 124.47C70.1956 131.474 67.3394 135.392 65.5497 138.85C69.6157 138.067 71.5365 132.245 69.3205 124.47Z" fill="url(#paint12_linear)"/>
<path d="M68.8769 53.1059C70.8023 53.9856 73.3267 53.8728 75.0468 53.4859C76.7181 53.1096 78.2444 52.6173 79.7799 53.7206C76.2165 48.0788 71.6362 52.7981 67.7756 49.6803C66.7209 49.961 64.655 48.8485 64.0149 48.6878C65.5851 51.0703 67.277 52.373 68.8769 53.1059Z" fill="url(#paint13_linear)"/>
<path d="M63.4252 29.8909C60.4557 26.1743 54.8316 28.6239 51.4014 25.956C53.6169 27.5449 60.7226 26.1003 63.4252 29.8909C62.0816 26.6412 57.3467 25.4154 54.9616 25.1969C52.7051 24.989 49.9677 25.0391 47.9747 24.0226C49.8109 26.5335 52.2473 29.2194 55.1442 29.7766C58.0343 30.3212 60.4901 28.7739 63.4252 29.8909Z" fill="url(#paint14_linear)"/>
<path d="M71.4717 133.332C72.3412 132.243 73.0639 129.866 73.0725 128.928C65.4746 122.322 72.6625 108.365 76.5147 118.823C77.7921 122.292 77.1112 126.29 74.2005 128.917C74.1128 129.003 74.0865 128.982 74.0231 129.1C73.1212 130.83 72.3679 132.84 71.315 134.354L71.4717 133.332ZM72.6612 124.756C73.8782 125.124 75.0852 123.495 75.3507 121.122C75.6162 118.75 74.8414 116.513 73.6244 116.145C72.4074 115.778 71.2004 117.407 70.9423 119.793C70.6788 122.156 71.4442 124.389 72.6612 124.756Z" fill="url(#paint15_linear)"/>
<path d="M60.2493 143.729C63.2574 138.61 61.7953 135.671 61.8729 131.984C61.9851 126.687 66.1062 124.313 67.7561 120.137C71.4064 128.014 66.9879 138.59 61.7016 142.52C61.4495 143.003 60.5884 143.336 60.2493 143.729ZM62.5366 140.408C64.8674 134.743 66.7902 128.916 67.5735 122.551C63.4272 127.815 64.0277 135.285 62.5366 140.408Z" fill="url(#paint16_linear)"/>
<path d="M86.0739 83.3313C86.1948 79.818 83.5316 77.3895 81.4298 75.9634C77.8585 73.5448 75.3258 71.6301 73.9417 66.911C73.8413 70.7155 74.1506 74.0256 76.9916 77.2175C79.5423 80.0825 83.1845 79.596 85.643 82.2456C84.3988 77.7925 79.0843 77.498 77.1119 73.9554C80.2852 76.7578 85.1948 77.4229 86.0739 83.3313Z" fill="url(#paint17_linear)"/>
<path d="M95.0358 77.0892C94.2455 80.4697 91.7965 81.9313 88.8789 85.2443C92.8818 82.147 97.1734 80.8196 97.6644 74.9266C98.007 70.9554 96.1946 65.9436 98.0855 62.5947C96.58 64.2495 93.7637 66.5172 93.174 69.037C95.5459 72.0542 95.5994 74.6487 95.0358 77.0892Z" fill="url(#paint18_linear)"/>
<path d="M85.6558 70.7988C85.7692 72.4754 86.3606 76.2516 86.2032 80.6156C86.7331 76.4748 86.0923 71.8238 86.1043 69.7341C86.1055 67.325 86.3036 64.9472 87.0836 62.9752C88.4827 59.4079 90.5978 56.5911 91.0387 52.7874C90.4068 59.681 86.1041 64.7685 86.5859 72.0827C87.3406 69.2226 89.1459 67.9522 90.8909 65.9153C92.8272 63.671 93.8536 60.5221 94.1178 57.2804C94.4245 53.5598 93.0681 48.1021 90.7018 44.91C90.8371 50.5361 89.4358 54.9695 87.2408 59.6807C85.6662 63.0561 85.3946 66.8692 85.6558 70.7988Z" fill="url(#paint19_linear)"/>
<path d="M86.608 88.3189C87.0671 87.0354 88.3592 82.8412 88.3592 82.8412C87.6275 81.6631 86.6406 80.0288 86.2269 78.4047C85.3961 75.1218 86.6857 70.993 89.1174 69.4221C92.9692 66.9218 95.5787 73.6485 94.602 77.4618C93.329 82.4476 89.6392 83.0588 88.8092 83.1771C88.8092 83.1771 87.815 85.824 87.4831 86.9711C87.2306 87.8631 86.608 88.3189 86.608 88.3189ZM88.856 80.3142C90.0314 81.0748 91.8135 79.2091 92.4375 76.5455C93.1084 73.6911 92.3681 71.1956 90.962 70.5849C89.5653 69.978 88.0794 71.7202 87.3805 74.3535C86.8177 76.4897 87.5013 79.4371 88.856 80.3142Z" fill="url(#paint20_linear)"/>
<path d="M84.4516 66.4259C84.6703 65.1091 85.1929 63.2159 85.1746 62.2438C85.1462 60.4712 85.0092 58.555 84.9633 56.7642C84.8383 51.9132 86.6907 48.1511 86.8206 43.557C87.5232 48.7916 86.7181 59.7745 85.1627 64.5392C89.1844 57.9698 91.9852 46.1199 86.359 37.957C85.8661 44.1703 83.5202 46.9647 82.9314 51.6931C82.2838 56.8248 84.0614 61.5831 84.4516 66.4259Z" fill="url(#paint21_linear)"/>
<path d="M72.8004 29.0227C72.2682 25.4211 73.3331 21.9306 73.4166 18.321C75.5162 21.7305 77.6011 27.1608 77.2018 31.1486C76.928 33.9154 75.1979 36.2403 74.7531 39.0345C74.5653 39.9175 74.8341 41.5253 75.2873 42.6261C76.8274 45.4414 78.7913 48.7957 80.6046 52.3259C80.7067 51.4835 80.5437 49.0132 80.1681 48.1704C80.033 47.8567 79.2215 47.4077 78.2431 45.9422C77.1286 44.2704 76.6817 42.6763 76.4577 40.731C75.8928 35.9195 78.9732 32.0853 81.7363 37.6407C83.2597 40.6971 82.8485 44.389 81.6151 47.0239C81.1206 48.0838 81.0863 48.0591 81.0456 49.5517C81.0169 50.3162 80.9961 52.011 80.8812 52.8697C83.281 57.6197 85.3517 62.6129 85.6686 66.9354C86.2423 67.9666 86.864 69.3085 86.9753 70.4641C86.1941 68.68 85.3748 66.8912 84.4411 65.9075C81.8892 67.3265 77.0491 63.308 75.9824 60.1572C75.0466 57.3938 75.2937 52.1583 79.0803 54.3896C82.3574 56.3273 84.8091 63.7719 84.596 65.2482C84.596 65.2482 85.1054 65.9515 85.6506 66.928C84.8634 63.794 83.9934 60.7879 82.7948 57.9715C81.6651 55.3556 80.7136 52.9308 79.1072 50.412C78.0955 48.8143 75.1529 43.0242 73.9363 42.1947C73.0897 41.6237 72.525 41.2105 72.1017 40.8226C71.2168 40.8613 69.1053 40.3791 69.1053 40.3791C65.2276 41.5926 60.7495 39.7158 58.7125 35.6202C56.3293 30.8339 60.0469 30.051 63.1255 31.2396C66.3398 32.4834 69.3471 35.7343 69.4859 39.6608C69.9673 40.0508 71.0522 40.1906 71.846 40.5784C71.3117 40.0052 71.0518 39.4251 70.6782 38.3674C72.0716 40.929 73.6808 41.1313 74.694 41.9534C74.5636 41.5122 74.3937 40.8178 74.3895 40.2771C74.3902 39.4042 74.3867 40.1897 74.506 38.8477C74.7441 36.0124 73.2242 31.9657 72.8004 29.0227ZM65.063 32.8907C62.7745 31.2907 60.4315 31.1024 59.8269 32.4841C59.2133 33.8621 60.5754 36.2815 62.8638 37.8814C65.1523 39.4814 67.4953 39.6698 68.1089 38.2918C68.7135 36.9101 67.3514 34.4906 65.063 32.8907ZM81.5002 58.7273C80.3996 56.5221 78.1277 55.2955 77.4899 56.1354C76.411 57.5504 76.9602 59.682 78.1038 61.1501C79.5903 63.0704 81.8755 64.0222 82.4242 63.5988C83.1777 63.0215 82.9022 61.5511 81.5002 58.7273ZM80.0925 45.2937C81.0497 45.0796 81.8877 43.3941 81.56 40.8676C81.2494 38.4558 79.9792 36.5265 78.811 36.5684C77.6428 36.6103 76.9839 38.5843 77.3344 40.9908C77.6921 43.411 78.9714 45.5488 80.0925 45.2937Z" fill="url(#paint22_linear)"/>
<path d="M81.9203 45.6067C81.6337 47.7478 81.1612 51.7331 82.7315 53.471C84.1294 48.369 88.3655 37.901 82.5605 32.1571C83.5847 36.7638 82.49 41.2896 81.9203 45.6067Z" fill="url(#paint23_linear)"/>
<path d="M59.2597 20.6907C58.2457 17.1012 57.0126 12.6869 54.9819 9.16373C57.7624 9.11096 61.9738 14.6617 63.5081 17.1941C66.1516 21.5528 67.5868 26.6784 68.3406 32.7956C68.1423 31.6594 67.8455 30.6858 67.5047 29.7902C66.8085 29.038 65.585 28.3165 64.8633 27.7991C61.7993 25.5936 60.3939 24.713 59.2597 20.6907ZM67.6933 30.0161C67.789 30.1723 67.8776 30.315 67.9554 30.4639C67.8974 30.3124 67.8088 30.1697 67.6933 30.0161ZM58.3417 12.8542C60.2131 15.4917 60.0951 18.7915 61.3427 21.6124C62.7802 24.905 65.6725 26.9981 67.4308 29.6215C65.8566 25.7296 63.1647 23.75 62.01 20.5937C61.0185 17.8982 60.0057 15.1621 58.3417 12.8542Z" fill="url(#paint24_linear)"/>
<path d="M72.3495 147.588C75.2947 152.334 70.6893 153.994 66.783 152.444C64.3826 151.496 62.3132 148.941 61.7544 146.283C60.879 145.934 58.454 145.549 57.9342 145.699L57.9444 145.355C60.0369 145.025 62.2158 145.608 62.2158 145.608C64.4691 143.48 70.2301 144.175 72.3495 147.588ZM68.716 145.994C66.6837 145.336 64.9008 145.821 64.7309 147.083C64.568 148.358 66.0791 149.902 68.1184 150.573C70.1595 151.235 71.9442 150.741 72.1053 149.475C72.2645 148.219 70.7572 146.656 68.716 145.994Z" fill="url(#paint25_linear)"/>
<path d="M71.0924 157.072C71.103 157.066 71.1206 157.072 71.1382 157.079C71.2296 157.095 71.2314 157.086 71.1419 157.061C71.1312 157.067 71.1118 157.069 71.0924 157.072Z" fill="url(#paint26_linear)"/>
<path d="M74.5163 134.527C70.2179 134.416 67.3859 139.307 63.5603 140.487C68.0818 140.179 70.8182 136.08 74.6028 135.704C77.4492 135.417 81.4773 137.423 84.002 136.54C82.2786 137.798 80.676 137.443 78.6671 137.226C74.706 136.794 71.8598 138.015 68.4288 139.561C70.325 139.328 72.2154 140.504 74.1978 140.908C78.1538 141.712 83.96 140.551 85.0697 135.828C81.598 136.994 78.1533 134.621 74.5163 134.527Z" fill="url(#paint27_linear)"/>
<path d="M53.1632 17.0002C53.6964 17.6522 55.2803 19.7861 55.543 21.1987C55.543 21.1987 58.3425 22.755 59.9785 24.7667L59.9891 24.7607C60.0029 24.7866 60.0255 24.816 60.0393 24.842C60.1088 24.9208 60.1678 25.0056 60.2267 25.0904C62.3093 27.6174 69.7358 33.5027 71.251 38.1225C70.3997 36.5364 67.7199 33.0559 65.0008 30.2137C62.9637 28.0829 60.8477 26.5029 59.8062 25.1678C57.4785 22.5431 54.9865 21.7327 54.9865 21.7327C52.8908 22.1327 48.3587 22.5516 46.8474 19.0266C44.9507 14.6224 50.9553 14.3415 53.1632 17.0002ZM49.9044 20.0829C51.8755 21.0022 53.4972 20.7604 53.7967 20.2873C54.3243 19.4659 52.5381 17.7417 51.3877 16.966C49.8376 15.9184 48.3305 16.2979 47.9094 17.2027C47.4758 18.1229 48.2516 19.3213 49.9044 20.0829Z" fill="url(#paint28_linear)"/>
<path d="M69.0224 33.0521C70.2971 37.2175 72.7113 39.3978 74.948 39.2834C71.9012 38.3236 70.2809 34.7942 69.6678 32.6351C69.0391 30.4049 69.1397 27.7272 67.8855 23.3004C70.4913 28.0077 70.3094 35.054 74.7256 38.7612C73.6146 33.1737 72.3978 25.0185 67.1456 21.9096C68.4425 26.8284 67.6487 28.5874 69.0224 33.0521Z" fill="url(#paint29_linear)"/>
<path d="M38.4318 17.4313C40.9133 18.9389 43.709 19.1614 46.2692 19.0296C43.6496 19.2725 44.2808 21.2185 39.8264 20.785C41.4216 23.2956 47.1627 24.1953 47.3174 20.0433C46.8193 20.7562 44.6576 22.3667 42.9819 21.5053C44.055 21.356 46.9901 19.87 46.8146 18.5641C42.9793 17.9231 40.2238 13.8969 36.7502 13.5469C40.657 13.5212 43.7055 15.4855 46.8146 18.5641C46.5901 16.4289 45.6543 14.3393 44.1554 12.9055C45.9918 12.4407 47.2394 16.0156 46.9409 17.5147L47.4224 16.8885C48.4189 12.1619 44.9778 11.9391 42.0026 11.8104C43.115 11.9988 44.4763 15.3287 45.6473 16.8381C43.995 14.9688 42.3833 14.0709 40.4484 13.323C37.0102 12.0011 34.6912 11.8667 31.519 9.11559C33.8003 12.2035 35.1695 15.4432 38.4318 17.4313Z" fill="url(#paint30_linear)"/>
<path d="M67.8798 154.225C66.2287 154.321 63.6059 152.328 61.827 149.983C59.1012 146.405 53.7706 147.836 51.2241 149.66C52.7973 149.347 53.6276 149.532 55.0188 150.269C56.7142 151.165 58.2933 152.782 59.8907 153.934C63.3893 156.445 68.512 157.688 71.3364 157.32C69.8407 157.152 68.9361 155.472 67.8798 154.225Z" fill="url(#paint31_linear)"/>
<path d="M61.5998 155.903C63.7371 157.313 65.5782 157.955 67.8337 158.393C64.4046 160.824 61.383 161.626 57.2079 160.301C52.7343 158.876 48.8819 154.4 44.8996 152.772C47.7137 152.704 50.3612 153.61 53.1126 154.728C56.2998 156.033 59.3425 158.247 62.615 158.45C59.6844 157.918 57.1102 154.461 53.6776 153.13C50.7024 151.974 44.366 152.289 42.4777 152.499C40.0415 153.007 38.337 153.717 35.7334 154.093C34.1803 154.312 34.555 154.719 33.122 153.755C32.6355 153.429 32.4945 152.756 32.0117 152.411C34.4769 152.457 37.8185 152.55 40.8514 152.093C42.6977 150.39 40.7384 144.972 41.4442 142.285C42.8487 136.896 47.6144 135.178 49.8747 128.936C51.971 135.854 49.0769 149.699 42.2839 150.338C45.0214 147.446 46.7268 142.094 47.6054 135.174C45.0269 137.738 42.8269 140.286 42.1279 144.4C41.6638 147.133 42.6079 150.003 41.2195 152.031C42.4642 151.814 43.6576 151.513 44.7052 151.067C49.3863 146.818 51.2386 140.496 50.5684 133.318C51.0085 131.065 52.1416 128.508 53.3179 126.532C52.9189 128.016 54.0553 131.038 54.0553 131.038C53.5703 132.52 53.1318 133.808 52.8837 135.661C52.5184 138.381 53.0063 141.724 54.1183 144.471C51.7579 147.102 49.2378 149.361 46.1051 150.744C48.6221 150.215 51.6468 150.456 54.2483 151.099C56.9607 151.766 59.1542 154.293 61.5998 155.903ZM44.6512 151.098L44.4814 151.231C44.5012 151.229 44.5228 151.216 44.5444 151.204C44.5788 151.175 44.615 151.137 44.6512 151.098Z" fill="url(#paint32_linear)"/>
<path d="M82.1798 101.388C81.3959 98.2535 76.5208 91.1906 71.5449 88.2019C76.0821 92.669 75.6941 97.4277 75.8686 101.549C76.0592 106.099 81.4994 108.605 81.7426 113.805C81.9247 109.612 80.3116 105.945 78.7723 103.998C76.8559 101.561 77.7306 96.8702 75.7733 93.3122C78.725 97.7189 81.9102 105.166 81.9967 111.136C83.0799 108.025 83.0976 105.054 82.1798 101.388Z" fill="url(#paint33_linear)"/>
<path d="M81.7357 125.346C76.7714 124.621 73.8119 128.61 71.8096 133.062C72.3208 132.646 73.8764 129.376 75.4954 128.184C76.9325 127.139 79.086 126.311 80.9105 126.301C82.9635 126.299 85.4704 127.485 88.0928 126.963C87.4024 128.818 82.7198 129.529 80.5885 129.288C77.761 128.976 74.6541 129.724 72.5293 132.508C74.3877 131.317 76.2393 131.265 78.5439 131.503C80.8111 131.735 83.1728 132.577 85.3202 131.831C87.2005 131.178 90.2579 126.626 91.5012 125.091C88.192 127.849 83.918 125.671 81.7357 125.346Z" fill="url(#paint34_linear)"/>
<path d="M85.5272 78.0843C85.4811 75.7417 85.5376 72.6659 84.2231 70.9202C81.1782 66.863 74.9033 65.028 72.7043 60.9359C73.7254 65.0544 76.8684 70.2399 80.0257 72.8665C81.4908 74.0764 83.6094 74.9118 85.006 76.2301C83.8936 71.9909 79.1191 69.4434 77.5462 66.8082C81.4689 69.0742 84.4817 70.4176 85.5272 78.0843Z" fill="url(#paint35_linear)"/>
<path d="M71.704 49.9516C73.7208 49.994 75.3088 48.8327 77.2028 50.5945C76.4411 47.4615 72.2925 44.0065 69.6233 43.1341C67.0343 42.2834 64.7412 43.2167 62.2229 41.3392C64.4379 43.5189 67.3537 43.233 69.7839 43.8906C72.3656 44.5878 73.9963 46.6877 75.3829 48.7414C72.6906 49.226 71.4676 46.2926 69.2282 44.8565C68.2369 44.2243 63.0807 42.9834 62.2229 41.3392C63.6728 45.025 66.8393 49.8502 71.704 49.9516Z" fill="url(#paint36_linear)"/>
<path d="M75.0393 128.005C76.5946 126.145 78.0523 123.619 78.9945 120.98C79.3997 116.396 76.0469 114.524 73.3959 112.657C70.4866 110.609 69.3017 107.709 69.3329 104.063C69.3534 101.189 71.0401 97.8714 69.3343 93.0432C72.9639 96.28 74.1553 102.885 74.6555 105.895C75.2966 109.804 77.6542 112.339 78.3826 116.252C78.9861 117.49 79.3282 118.871 79.172 120.459C79.5255 119.372 79.7937 118.272 79.9307 117.195C80.2086 115.02 79.4271 109.747 77.8332 108.635C80.4745 110.552 80.7126 115.398 80.4566 117.56C80.3664 118.29 80.2475 118.964 80.0962 119.604C80.6557 119.077 81.4712 118.383 81.6406 117.956C81.8266 117.492 81.0291 115.785 82.2603 113.577C83.4914 111.369 85.7676 109.619 88.4096 110.867C91.0859 112.14 89.9637 115.774 88.5406 117.3C86.6729 119.313 84.3582 119.882 81.7639 118.589C81.7639 118.589 80.5411 119.883 79.966 120.134C79.0876 123.36 77.4092 125.559 75.0393 128.005ZM83.3927 116.65C83.9972 117.371 86.0371 117.425 87.3248 115.995C88.6126 114.566 89.2895 112.704 88.3474 111.911C87.1183 110.881 85.5656 111.242 84.3614 112.49C83.027 113.857 82.783 115.906 83.3927 116.65ZM77.7167 115.085C76.5841 113.037 74.8491 111.23 73.9631 109.067C72.6871 105.979 73.0646 101.027 71.6256 98.0774C72.7899 101.444 72.2318 105.653 72.7902 107.845C73.3973 110.294 76.0205 112.408 77.7167 115.085Z" fill="url(#paint37_linear)"/>
<path d="M68.9841 146.129C67.531 145.649 66.2488 146.003 66.1291 146.918C66.0094 147.833 67.0926 148.952 68.5563 149.427C70.0182 149.911 71.2916 149.553 71.4113 148.638C71.5292 147.733 70.439 146.6 68.9841 146.129Z" fill="url(#paint38_linear)"/>
<defs>
<linearGradient id="paint0_linear" x1="347.366" y1="-225.77" x2="-44.8298" y2="46.0414" gradientUnits="userSpaceOnUse">
<stop stop-color="#B59130"/>
<stop offset="0.5" stop-color="#F1D15F"/>
<stop offset="1" stop-color="#B59130"/>
</linearGradient>
<linearGradient id="paint1_linear" x1="360.328" y1="-209.122" x2="-34.5232" y2="63.3934" gradientUnits="userSpaceOnUse">
<stop stop-color="#B59130"/>
<stop offset="0.5" stop-color="#F1D15F"/>
<stop offset="1" stop-color="#B59130"/>
</linearGradient>
<linearGradient id="paint2_linear" x1="378.998" y1="-210.427" x2="-33.6089" y2="72.0668" gradientUnits="userSpaceOnUse">
<stop stop-color="#B59130"/>
<stop offset="0.5" stop-color="#F1D15F"/>
<stop offset="1" stop-color="#B59130"/>
</linearGradient>
<linearGradient id="paint3_linear" x1="378.325" y1="-190.324" x2="-23.1719" y2="84.5985" gradientUnits="userSpaceOnUse">
<stop stop-color="#B59130"/>
<stop offset="0.5" stop-color="#F1D15F"/>
<stop offset="1" stop-color="#B59130"/>
</linearGradient>
<linearGradient id="paint4_linear" x1="399.336" y1="-182.72" x2="-16.195" y2="102.58" gradientUnits="userSpaceOnUse">
<stop stop-color="#B59130"/>
<stop offset="0.5" stop-color="#F1D15F"/>
<stop offset="1" stop-color="#B59130"/>
</linearGradient>
<linearGradient id="paint5_linear" x1="397.53" y1="-176.057" x2="-13.9324" y2="105.419" gradientUnits="userSpaceOnUse">
<stop stop-color="#B59130"/>
<stop offset="0.5" stop-color="#F1D15F"/>
<stop offset="1" stop-color="#B59130"/>
</linearGradient>
<linearGradient id="paint6_linear" x1="405.875" y1="-154.987" x2="-2.21924" y2="123.843" gradientUnits="userSpaceOnUse">
<stop stop-color="#B59130"/>
<stop offset="0.5" stop-color="#F1D15F"/>
<stop offset="1" stop-color="#B59130"/>
</linearGradient>
<linearGradient id="paint7_linear" x1="410.715" y1="-161.207" x2="-4.58725" y2="123.876" gradientUnits="userSpaceOnUse">
<stop stop-color="#B59130"/>
<stop offset="0.5" stop-color="#F1D15F"/>
<stop offset="1" stop-color="#B59130"/>
</linearGradient>
<linearGradient id="paint8_linear" x1="410.722" y1="-159.759" x2="-4.60543" y2="125.351" gradientUnits="userSpaceOnUse">
<stop stop-color="#B59130"/>
<stop offset="0.5" stop-color="#F1D15F"/>
<stop offset="1" stop-color="#B59130"/>
</linearGradient>
<linearGradient id="paint9_linear" x1="415.855" y1="-160.189" x2="-3.1019" y2="128.941" gradientUnits="userSpaceOnUse">
<stop stop-color="#B59130"/>
<stop offset="0.5" stop-color="#F1D15F"/>
<stop offset="1" stop-color="#B59130"/>
</linearGradient>
<linearGradient id="paint10_linear" x1="403.124" y1="-170.516" x2="-9.91165" y2="112.364" gradientUnits="userSpaceOnUse">
<stop stop-color="#B59130"/>
<stop offset="0.5" stop-color="#F1D15F"/>
<stop offset="1" stop-color="#B59130"/>
</linearGradient>
<linearGradient id="paint11_linear" x1="402.993" y1="-166.279" x2="-9.2399" y2="115.87" gradientUnits="userSpaceOnUse">
<stop stop-color="#B59130"/>
<stop offset="0.5" stop-color="#F1D15F"/>
<stop offset="1" stop-color="#B59130"/>
</linearGradient>
<linearGradient id="paint12_linear" x1="435.382" y1="-163.14" x2="4.31042" y2="143.961" gradientUnits="userSpaceOnUse">
<stop stop-color="#B59130"/>
<stop offset="0.5" stop-color="#F1D15F"/>
<stop offset="1" stop-color="#B59130"/>
</linearGradient>
<linearGradient id="paint13_linear" x1="363.638" y1="-182.57" x2="-15.8771" y2="88.0607" gradientUnits="userSpaceOnUse">
<stop stop-color="#B59130"/>
<stop offset="0.5" stop-color="#F1D15F"/>
<stop offset="1" stop-color="#B59130"/>
</linearGradient>
<linearGradient id="paint14_linear" x1="348.306" y1="-207.892" x2="-31.7975" y2="62.7351" gradientUnits="userSpaceOnUse">
<stop stop-color="#B59130"/>
<stop offset="0.5" stop-color="#F1D15F"/>
<stop offset="1" stop-color="#B59130"/>
</linearGradient>
<linearGradient id="paint15_linear" x1="418.235" y1="-161.335" x2="-2.28189" y2="129.72" gradientUnits="userSpaceOnUse">
<stop stop-color="#B59130"/>
<stop offset="0.5" stop-color="#F1D15F"/>
<stop offset="1" stop-color="#B59130"/>
</linearGradient>
<linearGradient id="paint16_linear" x1="429.774" y1="-164.068" x2="1.37541" y2="138.426" gradientUnits="userSpaceOnUse">
<stop stop-color="#B59130"/>
<stop offset="0.5" stop-color="#F1D15F"/>
<stop offset="1" stop-color="#B59130"/>
</linearGradient>
<linearGradient id="paint17_linear" x1="382.238" y1="-176.061" x2="-14.9584" y2="97.144" gradientUnits="userSpaceOnUse">
<stop stop-color="#B59130"/>
<stop offset="0.5" stop-color="#F1D15F"/>
<stop offset="1" stop-color="#B59130"/>
</linearGradient>
<linearGradient id="paint18_linear" x1="414.892" y1="-186.402" x2="-12.931" y2="115.158" gradientUnits="userSpaceOnUse">
<stop stop-color="#B59130"/>
<stop offset="0.5" stop-color="#F1D15F"/>
<stop offset="1" stop-color="#B59130"/>
</linearGradient>
<linearGradient id="paint19_linear" x1="416.275" y1="-198.328" x2="-16.7734" y2="112.359" gradientUnits="userSpaceOnUse">
<stop stop-color="#B59130"/>
<stop offset="0.5" stop-color="#F1D15F"/>
<stop offset="1" stop-color="#B59130"/>
</linearGradient>
<linearGradient id="paint20_linear" x1="403.922" y1="-182.865" x2="-15.1893" y2="106.465" gradientUnits="userSpaceOnUse">
<stop stop-color="#B59130"/>
<stop offset="0.5" stop-color="#F1D15F"/>
<stop offset="1" stop-color="#B59130"/>
</linearGradient>
<linearGradient id="paint21_linear" x1="406.231" y1="-206.126" x2="-23.7638" y2="99.0638" gradientUnits="userSpaceOnUse">
<stop stop-color="#B59130"/>
<stop offset="0.5" stop-color="#F1D15F"/>
<stop offset="1" stop-color="#B59130"/>
</linearGradient>
<linearGradient id="paint22_linear" x1="377.159" y1="-204.114" x2="-30.5182" y2="74.4217" gradientUnits="userSpaceOnUse">
<stop stop-color="#B59130"/>
<stop offset="0.5" stop-color="#F1D15F"/>
<stop offset="1" stop-color="#B59130"/>
</linearGradient>
<linearGradient id="paint23_linear" x1="400.641" y1="-213.721" x2="-28.812" y2="90.5116" gradientUnits="userSpaceOnUse">
<stop stop-color="#B59130"/>
<stop offset="0.5" stop-color="#F1D15F"/>
<stop offset="1" stop-color="#B59130"/>
</linearGradient>
<linearGradient id="paint24_linear" x1="358.208" y1="-226.888" x2="-45.2098" y2="49.0304" gradientUnits="userSpaceOnUse">
<stop stop-color="#B59130"/>
<stop offset="0.5" stop-color="#F1D15F"/>
<stop offset="1" stop-color="#B59130"/>
</linearGradient>
<linearGradient id="paint25_linear" x1="400.453" y1="-126.325" x2="10.9291" y2="145.026" gradientUnits="userSpaceOnUse">
<stop stop-color="#B59130"/>
<stop offset="0.5" stop-color="#F1D15F"/>
<stop offset="1" stop-color="#B59130"/>
</linearGradient>
<linearGradient id="paint26_linear" x1="407.693" y1="-111.791" x2="22.8449" y2="163.436" gradientUnits="userSpaceOnUse">
<stop stop-color="#B59130"/>
<stop offset="0.5" stop-color="#F1D15F"/>
<stop offset="1" stop-color="#B59130"/>
</linearGradient>
<linearGradient id="paint27_linear" x1="402.501" y1="-132.6" x2="8.32851" y2="139.708" gradientUnits="userSpaceOnUse">
<stop stop-color="#B59130"/>
<stop offset="0.5" stop-color="#F1D15F"/>
<stop offset="1" stop-color="#B59130"/>
</linearGradient>
<linearGradient id="paint28_linear" x1="352.644" y1="-213.556" x2="-36.5351" y2="57.7506" gradientUnits="userSpaceOnUse">
<stop stop-color="#B59130"/>
<stop offset="0.5" stop-color="#F1D15F"/>
<stop offset="1" stop-color="#B59130"/>
</linearGradient>
<linearGradient id="paint29_linear" x1="368.55" y1="-218.336" x2="-39.3813" y2="60.3816" gradientUnits="userSpaceOnUse">
<stop stop-color="#B59130"/>
<stop offset="0.5" stop-color="#F1D15F"/>
<stop offset="1" stop-color="#B59130"/>
</linearGradient>
<linearGradient id="paint30_linear" x1="342.337" y1="-235.343" x2="-51.7779" y2="36.9399" gradientUnits="userSpaceOnUse">
<stop stop-color="#B59130"/>
<stop offset="0.5" stop-color="#F1D15F"/>
<stop offset="1" stop-color="#B59130"/>
</linearGradient>
<linearGradient id="paint31_linear" x1="396.81" y1="-114.37" x2="18.6843" y2="156.267" gradientUnits="userSpaceOnUse">
<stop stop-color="#B59130"/>
<stop offset="0.5" stop-color="#F1D15F"/>
<stop offset="1" stop-color="#B59130"/>
</linearGradient>
<linearGradient id="paint32_linear" x1="402.677" y1="-143.501" x2="0.646283" y2="131.695" gradientUnits="userSpaceOnUse">
<stop stop-color="#B59130"/>
<stop offset="0.5" stop-color="#F1D15F"/>
<stop offset="1" stop-color="#B59130"/>
</linearGradient>
<linearGradient id="paint33_linear" x1="399.176" y1="-168.784" x2="-10.4621" y2="111.198" gradientUnits="userSpaceOnUse">
<stop stop-color="#B59130"/>
<stop offset="0.5" stop-color="#F1D15F"/>
<stop offset="1" stop-color="#B59130"/>
</linearGradient>
<linearGradient id="paint34_linear" x1="404.766" y1="-140.755" x2="4.5454" y2="133.608" gradientUnits="userSpaceOnUse">
<stop stop-color="#B59130"/>
<stop offset="0.5" stop-color="#F1D15F"/>
<stop offset="1" stop-color="#B59130"/>
</linearGradient>
<linearGradient id="paint35_linear" x1="379.633" y1="-180.159" x2="-17.2792" y2="92.9529" gradientUnits="userSpaceOnUse">
<stop stop-color="#B59130"/>
<stop offset="0.5" stop-color="#F1D15F"/>
<stop offset="1" stop-color="#B59130"/>
</linearGradient>
<linearGradient id="paint36_linear" x1="362.105" y1="-191.046" x2="-21.9983" y2="79.7516" gradientUnits="userSpaceOnUse">
<stop stop-color="#B59130"/>
<stop offset="0.5" stop-color="#F1D15F"/>
<stop offset="1" stop-color="#B59130"/>
</linearGradient>
<linearGradient id="paint37_linear" x1="400.059" y1="-163.473" x2="-8.12321" y2="115.421" gradientUnits="userSpaceOnUse">
<stop stop-color="#B59130"/>
<stop offset="0.5" stop-color="#F1D15F"/>
<stop offset="1" stop-color="#B59130"/>
</linearGradient>
<linearGradient id="paint38_linear" x1="403.163" y1="-128.56" x2="9.79167" y2="143.536" gradientUnits="userSpaceOnUse">
<stop stop-color="#B59130"/>
<stop offset="0.5" stop-color="#F1D15F"/>
<stop offset="1" stop-color="#B59130"/>
</linearGradient>
</defs>
</svg>
