<svg width="114" height="174" viewBox="0 0 114 174" fill="none" xmlns="http://www.w3.org/2000/svg">
<path d="M64.2791 18.9437C62.9497 19.5598 61.8583 19.3993 61.6543 19.0787C61.293 18.5323 62.5044 17.3548 63.2738 16.8293C64.3183 16.1109 65.3436 16.3701 65.6226 16.9805C65.9159 17.616 65.3907 18.4253 64.2791 18.9437Z" fill="url(#paint0_linear)"/>
<path d="M49.4199 33.6243C50.8781 32.6102 52.3852 32.4917 52.772 33.3654C53.1588 34.2392 52.2948 35.773 50.8278 36.7907C49.3678 37.7951 47.8625 37.9233 47.4757 37.0495C47.0889 36.1758 47.9635 34.648 49.4199 33.6243Z" fill="url(#paint1_linear)"/>
<path d="M34.1454 39.4387C34.3744 37.6884 35.3023 36.2866 36.1566 36.3102C37.011 36.3339 37.4842 37.7771 37.2258 39.5284C36.9674 41.2798 36.041 42.8446 35.2238 42.6532C34.521 42.4917 33.9025 41.271 34.1454 39.4387Z" fill="url(#paint2_linear)"/>
<path d="M37.773 56.766C38.5036 57.7212 38.1351 59.1653 37.3541 60.1615C36.343 61.4634 34.8029 62.1102 34.4205 61.8199C33.9117 61.4218 34.098 60.4337 35.0517 58.5292C35.8011 57.0153 37.3398 56.2099 37.773 56.766Z" fill="url(#paint3_linear)"/>
<path d="M25.6504 77.7466C24.8437 78.2708 23.6307 76.9856 23.2019 75.1633C22.7458 73.1985 23.2538 71.4793 24.2099 71.0591C25.168 70.6491 26.1834 71.8389 26.6604 73.6526C27.0433 75.1315 26.5826 77.1496 25.6504 77.7466Z" fill="url(#paint4_linear)"/>
<path d="M34.725 85.2031C35.5254 85.2692 35.9124 86.6777 35.5918 88.3522C35.2694 90.0166 34.362 91.2989 33.5616 91.2329C32.7593 91.1567 32.3723 89.7481 32.6948 88.0837C33.0172 86.4194 33.9227 85.127 34.725 85.2031Z" fill="url(#paint5_linear)"/>
<path d="M28.4079 113.77C27.5557 112.833 27.1173 111.608 27.7309 111.088C28.5375 110.404 29.5598 110.646 30.36 111.464C31.2356 112.371 31.3951 113.72 30.9994 114.204C30.6018 114.679 29.2582 114.697 28.4079 113.77Z" fill="url(#paint6_linear)"/>
<path d="M40.0696 119.69C39.9033 118.145 40.3931 116.697 41.1834 116.454C41.9736 116.21 42.7534 117.265 42.9215 118.819C43.0897 120.374 42.598 121.812 41.8078 122.055C41.0175 122.299 40.247 121.24 40.0696 119.69Z" fill="url(#paint7_linear)"/>
<path d="M57.979 137.871C56.9168 138.203 55.8533 136.759 55.6319 134.667C55.3994 132.569 56.0775 130.595 57.1397 130.263C58.2039 129.941 59.2655 131.375 59.5 133.484C59.7213 135.576 59.0505 137.536 57.979 137.871Z" fill="url(#paint8_linear)"/>
<path d="M59.1863 144.14C60.4033 143.285 61.3747 138.799 61.461 136.523C61.5938 133.18 59.7626 126.026 55.567 128.589C52.4923 130.48 52.7055 138.187 53.7877 140.874C55.0601 144.026 57.2314 144.409 58.5628 144.568C58.5628 144.568 58.7571 145.472 59.599 146.546C59.9222 146.967 60.1444 147.231 60.2878 147.295L60.8734 147.246C59.6675 146.43 59.1863 144.14 59.1863 144.14ZM58.1078 140.215C56.6017 140.667 55.1142 138.651 54.7866 135.692C54.459 132.734 55.418 129.963 56.9241 129.51C58.4283 129.048 59.9271 131.071 60.2547 134.029C60.571 136.981 59.612 139.752 58.1078 140.215Z" fill="url(#paint9_linear)"/>
<path d="M17.5995 79.8858C20.3679 87.2297 22.692 88.0536 23.8318 89.7733C24.772 91.2248 25.0809 92.1687 25.6616 93.8099C26.0533 94.9276 28.6673 98.4602 29.8133 99.6426C30.0567 101.486 30.4156 103.261 30.9223 104.878C30.0053 103.34 28.7443 101.866 27.6056 100.877C24.6669 98.3388 21.2582 99.2429 17.7804 100.044C19.9843 101.43 18.9637 104.321 21.6082 105.528C24.9913 107.079 29.787 106.703 32.1188 110.208C31.2954 107.814 28.9196 106.771 26.9289 105.725C23.9716 104.176 21.8258 103.301 19.8454 100.34C21.9142 100.242 24.5628 100.072 26.4458 101.021C27.9749 101.775 29.8981 103.919 31.0472 106.257C31.6839 107.569 31.889 108.85 32.1299 110.215C32.1195 108.451 32.3025 107.907 31.8099 106.623C31.7456 106.442 31.6499 106.252 31.5672 106.078C31.1591 104.563 30.8534 102.963 30.6172 101.313C30.2295 97.3675 32.6927 95.0359 32.6927 95.0359C34.5626 93.5345 36.0117 92.5749 37.0758 89.6002C37.6959 87.8752 37.9515 84.5522 37.2046 83.0768C35.1346 78.974 31.4057 83.5875 30.8308 87.2584C30.3683 90.1198 31.1362 92.4816 31.9441 94.7943C31.5243 95.6523 30.6861 97.324 30.2959 98.8028C29.5495 91.4781 29.9076 83.6175 29.4582 78.5729C29.6774 82.827 28.8101 91.6474 29.7697 99.3111C28.684 97.2531 28.4631 94.0254 28.0669 91.7965C27.632 89.365 26.6086 87.2707 25.059 85.6847C23.4964 84.0822 19.9124 83.1369 16.9829 77.539C17.135 82.1151 18.628 86.2012 19.4124 89.1673C20.2562 92.393 22.3807 96.0044 25.0383 97.2276C26.308 97.8142 27.8326 97.8716 28.6921 99.1595C27.6213 97.1281 26.0703 96.001 24.4241 94.5307C21.644 91.9931 18.8869 85.6923 17.5995 79.8858ZM32.37 87.4954C32.8397 85.0348 34.179 83.1378 35.3668 83.2447C36.5547 83.3516 37.1301 85.4314 36.6492 87.8856C36.1775 90.336 34.831 92.2469 33.6504 92.1261C32.4645 92.0293 31.8891 89.9496 32.37 87.4954Z" fill="url(#paint10_linear)"/>
<path d="M50.4394 124.162C49.4875 122.588 46.5671 120.888 46.8751 117.952C46.2808 118.923 45.7102 119.656 45.3267 121.163C45.9145 116.436 48.696 109.499 52.2156 108.135C49.0469 114.749 52.4759 119.217 50.4394 124.162Z" fill="url(#paint11_linear)"/>
<path d="M45.4959 123.94C44.6208 130.944 47.477 134.862 49.2667 138.32C45.2007 137.537 43.2799 131.714 45.4959 123.94Z" fill="url(#paint12_linear)"/>
<path d="M45.9394 52.5756C44.014 53.4553 41.4896 53.3426 39.7695 52.9556C38.0982 52.5793 36.5719 52.0871 35.0364 53.1904C38.5998 47.5485 43.1801 52.2678 47.0407 49.1501C48.0954 49.4307 50.1613 48.3183 50.8014 48.1575C49.2312 50.54 47.5393 51.8427 45.9394 52.5756Z" fill="url(#paint13_linear)"/>
<path d="M51.3911 29.3607C54.3607 25.6441 59.9848 28.0937 63.415 25.4257C61.1995 27.0147 54.0938 25.57 51.3911 29.3607C52.7348 26.1109 57.4697 24.8851 59.8548 24.6666C62.1113 24.4588 64.8487 24.5089 66.8417 23.4924C65.0056 26.0032 62.5691 28.6891 59.6722 29.2463C56.7821 29.7909 54.3262 28.2436 51.3911 29.3607Z" fill="url(#paint14_linear)"/>
<path d="M43.3447 132.802C42.4751 131.712 41.7524 129.335 41.7438 128.398C49.3418 121.792 42.1539 107.835 38.3016 118.293C37.0243 121.761 37.7051 125.76 40.6159 128.387C40.7036 128.473 40.7299 128.451 40.7933 128.57C41.6952 130.299 42.4485 132.31 43.5014 133.823L43.3447 132.802ZM42.1551 124.226C40.9381 124.593 39.7311 122.965 39.4656 120.592C39.2002 118.219 39.9749 115.982 41.192 115.615C42.409 115.248 43.616 116.877 43.874 119.263C44.1375 121.625 43.3721 123.859 42.1551 124.226Z" fill="url(#paint15_linear)"/>
<path d="M54.567 143.198C51.5589 138.079 53.021 135.14 52.9434 131.454C52.8312 126.157 48.7102 123.783 47.0603 119.607C43.4101 127.483 47.8286 138.059 53.1147 141.99C53.3668 142.473 54.2279 142.805 54.567 143.198ZM52.2797 139.878C49.949 134.212 48.0262 128.386 47.2429 122.021C51.3892 127.285 50.7886 134.755 52.2797 139.878Z" fill="url(#paint16_linear)"/>
<path d="M28.7425 82.8011C28.6216 79.2877 31.2847 76.8592 33.3865 75.4331C36.9579 73.0146 39.4906 71.0998 40.8746 66.3807C40.9751 70.1852 40.6658 73.4954 37.8248 76.6872C35.2741 79.5522 31.6318 79.0658 29.1733 81.7153C30.4176 77.2623 35.7321 76.9677 37.7044 73.4251C34.5311 76.2275 29.6216 76.8926 28.7425 82.8011Z" fill="url(#paint17_linear)"/>
<path d="M19.7805 76.559C20.5708 79.9395 23.0198 81.401 25.9374 84.714C21.9345 81.6167 17.6429 80.2893 17.1519 74.3963C16.8093 70.4252 18.6217 65.4133 16.7308 62.0644C18.2363 63.7193 21.0526 65.9869 21.6423 68.5067C19.2704 71.5239 19.2169 74.1184 19.7805 76.559Z" fill="url(#paint18_linear)"/>
<path d="M29.1606 70.2685C29.0471 71.9452 28.4557 75.7213 28.6131 80.0853C28.0832 75.9445 28.7241 71.2935 28.712 69.2038C28.7108 66.7947 28.5127 64.4169 27.7327 62.4449C26.3336 58.8776 24.2185 56.0608 23.7776 52.2571C24.4095 59.1507 28.7122 64.2382 28.2304 71.5524C27.4758 68.6923 25.6704 67.4219 23.9254 65.385C21.9891 63.1407 20.9626 59.9919 20.6984 56.7502C20.3918 53.0295 21.7481 47.5718 24.1145 44.3798C23.9791 50.0058 25.3805 54.4392 27.5756 59.1504C29.1501 62.5258 29.4218 66.3389 29.1606 70.2685Z" fill="url(#paint19_linear)"/>
<path d="M28.2083 87.7884C27.7492 86.5048 26.4571 82.3107 26.4571 82.3107C27.1888 81.1326 28.1757 79.4983 28.5894 77.8741C29.4202 74.5913 28.1306 70.4625 25.6989 68.8916C21.8471 66.3913 19.2376 73.118 20.2143 76.9313C21.4873 81.9171 25.1771 82.5283 26.0071 82.6466C26.0071 82.6466 27.0013 85.2935 27.3332 86.4405C27.5857 87.3325 28.2083 87.7884 28.2083 87.7884ZM25.9603 79.7836C24.7849 80.5443 23.0028 78.6786 22.3788 76.015C21.7079 73.1606 22.4482 70.6651 23.8543 70.0544C25.251 69.4475 26.7369 71.1896 27.4358 73.823C27.9986 75.9591 27.315 78.9066 25.9603 79.7836Z" fill="url(#paint20_linear)"/>
<path d="M30.3648 65.8956C30.1461 64.5789 29.6235 62.6856 29.6418 61.7135C29.6702 59.9409 29.8072 58.0247 29.8531 56.234C29.978 51.3829 28.1257 47.6209 27.9958 43.0267C27.2931 48.2613 28.0982 59.2442 29.6536 64.0089C25.632 57.4395 22.8311 45.5896 28.4574 37.4267C28.9502 43.6401 31.2962 46.4344 31.885 51.1628C32.5326 56.2945 30.755 61.0528 30.3648 65.8956Z" fill="url(#paint21_linear)"/>
<path d="M42.0159 28.4924C42.5482 24.8908 41.4832 21.4004 41.3997 17.7907C39.3001 21.2003 37.2152 26.6305 37.6145 30.6183C37.8884 33.3851 39.6184 35.71 40.0632 38.5042C40.251 39.3872 39.9822 40.9951 39.5291 42.0958C37.9889 44.9111 36.0251 48.2654 34.2117 51.7956C34.1097 50.9532 34.2726 48.483 34.6482 47.6401C34.7834 47.3264 35.5948 46.8775 36.5732 45.412C37.6878 43.7401 38.1346 42.146 38.3586 40.2007C38.9235 35.3892 35.8431 31.555 33.08 37.1104C31.5566 40.1668 31.9678 43.8587 33.2012 46.4936C33.6957 47.5536 33.73 47.5288 33.7707 49.0214C33.7994 49.7859 33.8202 51.4807 33.9352 52.3395C31.5353 57.0894 29.4646 62.0827 29.1477 66.4051C28.574 67.4363 27.9523 68.7782 27.841 69.9338C28.6222 68.1497 29.4415 66.361 30.3752 65.3772C32.9271 66.7962 37.7673 62.7777 38.8339 59.6269C39.7697 56.8636 39.5226 51.628 35.736 53.8594C32.459 55.7971 30.0072 63.2416 30.2203 64.7179C30.2203 64.7179 29.7109 65.4212 29.1658 66.3977C29.9529 63.2637 30.8229 60.2576 32.0216 57.4412C33.1512 54.8253 34.1028 52.4005 35.7091 49.8817C36.7209 48.284 39.6634 42.4939 40.88 41.6645C41.7267 41.0934 42.2914 40.6803 42.7147 40.2923C43.5996 40.331 45.7111 39.8488 45.7111 39.8488C49.5888 41.0623 54.0669 39.1855 56.104 35.0899C58.4871 30.3036 54.7695 29.5208 51.6909 30.7093C48.4766 31.9531 45.4693 35.204 45.3304 39.1306C44.849 39.5206 43.7642 39.6603 42.9704 40.0481C43.5046 39.4749 43.7646 38.8948 44.1382 37.8372C42.7447 40.3987 41.1356 40.601 40.1223 41.4231C40.2527 40.982 40.4226 40.2875 40.4268 39.7468C40.4262 38.8739 40.4297 39.6594 40.3104 38.3174C40.0722 35.4821 41.5921 31.4354 42.0159 28.4924ZM49.7534 32.3604C52.0419 30.7605 54.3849 30.5721 54.9895 31.9538C55.6031 33.3318 54.241 35.7512 51.9526 37.3511C49.6641 38.9511 47.3211 39.1395 46.7075 37.7615C46.1029 36.3798 47.4649 33.9604 49.7534 32.3604ZM33.3161 58.197C34.4168 55.9918 36.6887 54.7652 37.3265 55.6051C38.4054 57.0201 37.8562 59.1517 36.7125 60.6198C35.2261 62.5401 32.9408 63.4919 32.3921 63.0685C31.6386 62.4913 31.9141 61.0208 33.3161 58.197ZM34.7239 44.7634C33.7666 44.5494 32.9287 42.8639 33.2563 40.3373C33.5669 37.9255 34.8371 35.9962 36.0053 36.0381C37.1735 36.08 37.8325 38.054 37.4819 40.4605C37.1242 42.8807 35.845 45.0185 34.7239 44.7634Z" fill="url(#paint22_linear)"/>
<path d="M32.8961 45.0765C33.1827 47.2175 33.6552 51.2029 32.0849 52.9407C30.687 47.8388 26.4509 37.3708 32.2559 31.6268C31.2317 36.2335 32.3264 40.7593 32.8961 45.0765Z" fill="url(#paint23_linear)"/>
<path d="M55.5566 20.1605C56.5707 16.5709 57.8038 12.1566 59.8344 8.63346C57.0539 8.58068 52.8426 14.1314 51.3083 16.6638C48.6649 21.0226 47.2296 26.1481 46.4758 32.2653C46.6741 31.1292 46.971 30.1555 47.3117 29.26C48.008 28.5077 49.2314 27.7863 49.9532 27.2688C53.0171 25.0634 54.4224 24.1827 55.5566 20.1605ZM47.1232 29.4858C47.0275 29.642 46.9388 29.7847 46.8611 29.9336C46.919 29.7821 47.0077 29.6394 47.1232 29.4858ZM56.4747 12.3239C54.6033 14.9614 54.7213 18.2612 53.4737 21.0821C52.0362 24.3748 49.1439 26.4678 47.3857 29.0913C48.9598 25.1993 51.6517 23.2197 52.8064 20.0634C53.7979 17.3679 54.8107 14.6318 56.4747 12.3239Z" fill="url(#paint24_linear)"/>
<path d="M42.4669 147.058C39.5217 151.804 44.1271 153.463 48.0333 151.914C50.4338 150.966 52.5031 148.411 53.0619 145.753C53.9373 145.403 56.3623 145.018 56.8821 145.169L56.8719 144.825C54.7794 144.494 52.6005 145.078 52.6005 145.078C50.3473 142.95 44.5862 143.644 42.4669 147.058ZM46.1003 145.464C48.1327 144.806 49.9156 145.291 50.0854 146.553C50.2483 147.828 48.7373 149.372 46.698 150.043C44.6569 150.705 42.8721 150.21 42.7111 148.945C42.5518 147.689 44.0592 146.126 46.1003 145.464Z" fill="url(#paint25_linear)"/>
<path d="M43.724 156.541C43.7134 156.535 43.6958 156.542 43.6782 156.549C43.5868 156.565 43.5849 156.555 43.6746 156.531C43.6852 156.536 43.7046 156.539 43.724 156.541Z" fill="url(#paint26_linear)"/>
<path d="M40.3001 133.997C44.5984 133.886 47.4304 138.777 51.256 139.956C46.7345 139.649 43.9982 135.55 40.2136 135.174C37.3671 134.887 33.3391 136.893 30.8143 136.01C32.5378 137.267 34.1404 136.913 36.1492 136.696C40.1104 136.264 42.9565 137.485 46.3875 139.031C44.4913 138.797 42.6009 139.974 40.6185 140.377C36.6626 141.181 30.8564 140.021 29.7467 135.298C33.2184 136.464 36.663 134.091 40.3001 133.997Z" fill="url(#paint27_linear)"/>
<path d="M61.6531 16.4699C61.1199 17.122 59.536 19.2558 59.2733 20.6684C59.2733 20.6684 56.4738 22.2248 54.8378 24.2364L54.8272 24.2304C54.8134 24.2563 54.7909 24.2858 54.777 24.3117C54.7075 24.3905 54.6486 24.4753 54.5896 24.5602C52.507 27.0872 45.0805 32.9724 43.5653 37.5922C44.4166 36.0061 47.0964 32.5257 49.8155 29.6834C51.8526 27.5526 53.9686 25.9727 55.0102 24.6376C57.3378 22.0128 59.8298 21.2024 59.8298 21.2024C61.9255 21.6025 66.4577 22.0214 67.969 18.4963C69.8656 14.0921 63.861 13.8112 61.6531 16.4699ZM64.9119 19.5527C62.9408 20.4719 61.3191 20.2301 61.0196 19.7571C60.4921 18.9356 62.2783 17.2115 63.4286 16.4357C64.9787 15.3881 66.4858 15.7677 66.907 16.6724C67.3406 17.5926 66.5648 18.791 64.9119 19.5527Z" fill="url(#paint28_linear)"/>
<path d="M45.7939 32.5218C44.5192 36.6872 42.1051 38.8675 39.8683 38.7531C42.9152 37.7933 44.5355 34.264 45.1485 32.1049C45.7773 29.8746 45.6767 27.1969 46.9309 22.7701C44.3251 27.4774 44.507 34.5237 40.0908 38.231C41.2018 32.6434 42.4186 24.4883 47.6708 21.3793C46.3738 26.2982 47.1677 28.0572 45.7939 32.5218Z" fill="url(#paint29_linear)"/>
<path d="M76.3846 16.901C73.9031 18.4087 71.1074 18.6311 68.5472 18.4993C71.1668 18.7422 70.5356 20.6883 74.9899 20.2547C73.3948 22.7653 67.6538 23.665 67.499 19.513C67.9971 20.2259 70.1588 21.8365 71.8345 20.975C70.7614 20.8257 67.8263 19.3397 68.0018 18.0338C71.8371 17.3928 74.5926 13.3667 78.0662 13.0166C74.1594 12.9909 71.1109 14.9552 68.0018 18.0338C68.2263 15.8986 69.1621 13.8091 70.661 12.3752C68.8246 11.9104 67.577 15.4853 67.8755 16.9844L67.394 16.3582C66.3975 11.6316 69.8386 11.4088 72.8138 11.2802C71.7014 11.4685 70.3401 14.7984 69.1691 16.3079C70.8214 14.4386 72.4331 13.5406 74.368 12.7927C77.8062 11.4708 80.1252 11.3364 83.2974 8.58531C81.016 11.6732 79.6469 14.9129 76.3846 16.901Z" fill="url(#paint30_linear)"/>
<path d="M46.9365 153.695C48.5875 153.791 51.2104 151.798 52.9893 149.453C55.7152 145.875 61.0458 147.306 63.5923 149.13C62.0191 148.817 61.1888 149.002 59.7976 149.739C58.1021 150.634 56.523 152.252 54.9256 153.404C51.427 155.915 46.3043 157.158 43.4799 156.79C44.9756 156.622 45.8802 154.942 46.9365 153.695Z" fill="url(#paint31_linear)"/>
<path d="M53.2165 155.372C51.0793 156.783 49.2381 157.425 46.9827 157.863C50.4118 160.294 53.4334 161.095 57.6085 159.771C62.0821 158.346 65.9345 153.87 69.9168 152.241C67.1026 152.174 64.4551 153.079 61.7038 154.197C58.5166 155.503 55.4739 157.717 52.2014 157.92C55.132 157.388 57.7062 153.931 61.1388 152.6C64.114 151.444 70.4503 151.759 72.3387 151.969C74.7748 152.477 76.4794 153.187 79.0829 153.563C80.636 153.782 80.2613 154.189 81.6943 153.224C82.1809 152.899 82.3218 152.226 82.8047 151.881C80.3395 151.926 76.9978 152.02 73.965 151.563C72.1187 149.859 74.078 144.442 73.3722 141.754C71.9677 136.365 67.202 134.647 64.9416 128.406C62.8453 135.323 65.7395 149.169 72.5325 149.808C69.7949 146.915 68.0896 141.564 67.2109 134.644C69.7895 137.208 71.9895 139.756 72.6885 143.87C73.1526 146.603 72.2085 149.472 73.5968 151.5C72.3522 151.284 71.1588 150.982 70.1111 150.537C65.4301 146.288 63.5778 139.966 64.2479 132.788C63.8079 130.534 62.6747 127.978 61.4984 126.002C61.8974 127.486 60.761 130.508 60.761 130.508C61.2461 131.989 61.6845 133.277 61.9327 135.131C62.298 137.851 61.8101 141.194 60.6981 143.94C63.0585 146.572 65.5786 148.83 68.7113 150.213C66.1942 149.685 63.1696 149.926 60.5681 150.569C57.8557 151.235 55.6622 153.763 53.2165 155.372ZM70.1652 150.568L70.3349 150.701C70.3152 150.698 70.2936 150.686 70.2719 150.673C70.2376 150.645 70.2014 150.607 70.1652 150.568Z" fill="url(#paint32_linear)"/>
<path d="M32.6365 100.858C33.4204 97.7232 38.2956 90.6603 43.2715 87.6716C38.7342 92.1387 39.1222 96.8974 38.9478 101.019C38.7571 105.569 33.3169 108.075 33.0737 113.275C32.8916 109.082 34.5048 105.415 36.0441 103.467C37.9604 101.031 37.0857 96.3399 39.043 92.7819C36.0913 97.1886 32.9061 104.636 32.8196 110.606C31.7365 107.494 31.7187 104.523 32.6365 100.858Z" fill="url(#paint33_linear)"/>
<path d="M33.0807 124.816C38.0451 124.091 41.0046 128.08 43.0069 132.531C42.4957 132.115 40.9401 128.846 39.3211 127.653C37.8839 126.609 35.7304 125.781 33.906 125.77C31.8529 125.768 29.346 126.955 26.7236 126.433C27.414 128.288 32.0966 128.999 34.2279 128.758C37.0554 128.446 40.1624 129.193 42.2872 131.978C40.4288 130.787 38.5771 130.735 36.2725 130.972C34.0053 131.205 31.6436 132.047 29.4963 131.301C27.6159 130.648 24.5584 126.096 23.3151 124.56C26.6244 127.319 30.8984 125.141 33.0807 124.816Z" fill="url(#paint34_linear)"/>
<path d="M29.2892 77.554C29.3353 75.2114 29.2788 72.1356 30.5934 70.39C33.6382 66.3328 39.9131 64.4977 42.1121 60.4056C41.091 64.5241 37.9481 69.7096 34.7907 72.3363C33.3256 73.5461 31.207 74.3816 29.8105 75.6998C30.9228 71.4606 35.6974 68.9131 37.2702 66.2779C33.3475 68.5439 30.3348 69.8874 29.2892 77.554Z" fill="url(#paint35_linear)"/>
<path d="M43.1124 49.4213C41.0956 49.4637 39.5077 48.3024 37.6136 50.0643C38.3753 46.9312 42.5239 43.4762 45.1931 42.6039C47.7821 41.7531 50.0752 42.6864 52.5935 40.8089C50.3784 42.9886 47.4626 42.7028 45.0325 43.3603C42.4508 44.0575 40.8201 46.1574 39.4335 48.2112C42.1258 48.6957 43.3488 45.7623 45.5882 44.3263C46.5795 43.6941 51.7357 42.4531 52.5935 40.8089C51.1436 44.4948 47.9771 49.3199 43.1124 49.4213Z" fill="url(#paint36_linear)"/>
<path d="M39.777 127.474C38.2217 125.614 36.764 123.088 35.8218 120.45C35.4166 115.866 38.7695 113.993 41.4204 112.126C44.3297 110.079 45.5146 107.179 45.4835 103.532C45.4629 100.659 43.7762 97.3411 45.482 92.5129C41.8524 95.7497 40.661 102.355 40.1608 105.364C39.5197 109.274 37.1621 111.809 36.4337 115.721C35.8303 116.96 35.4881 118.34 35.6443 119.928C35.2908 118.842 35.0226 117.742 34.8856 116.665C34.6077 114.489 35.3893 109.217 36.9831 108.104C34.3418 110.021 34.1037 114.867 34.3597 117.03C34.4499 117.759 34.5688 118.434 34.7201 119.074C34.1606 118.546 33.3451 117.853 33.1757 117.425C32.9897 116.961 33.7872 115.255 32.5561 113.047C31.3249 110.839 29.0487 109.089 26.4067 110.337C23.7304 111.61 24.8526 115.244 26.2758 116.769C28.1434 118.783 30.4581 119.352 33.0524 118.058C33.0524 118.058 34.2752 119.352 34.8503 119.604C35.7288 122.83 37.4071 125.028 39.777 127.474ZM31.4236 116.12C30.8191 116.841 28.7792 116.894 27.4915 115.465C26.2038 114.036 25.5268 112.174 26.4689 111.38C27.698 110.351 29.2507 110.712 30.4549 111.96C31.7893 113.327 32.0334 115.375 31.4236 116.12ZM37.0996 114.554C38.2323 112.507 39.9672 110.7 40.8533 108.536C42.1292 105.448 41.7517 100.497 43.1907 97.5471C42.0264 100.914 42.5845 105.123 42.0261 107.314C41.419 109.763 38.7958 111.878 37.0996 114.554Z" fill="url(#paint37_linear)"/>
<path d="M45.8323 145.599C47.2853 145.118 48.5675 145.473 48.6872 146.388C48.8069 147.303 47.7237 148.422 46.26 148.896C44.7982 149.381 43.5248 149.023 43.4051 148.108C43.2873 147.202 44.3774 146.07 45.8323 145.599Z" fill="url(#paint38_linear)"/>
<defs>
<linearGradient id="paint0_linear" x1="-232.549" y1="-226.3" x2="159.646" y2="45.5109" gradientUnits="userSpaceOnUse">
<stop stop-color="#B59130"/>
<stop offset="0.5" stop-color="#F1D15F"/>
<stop offset="1" stop-color="#B59130"/>
</linearGradient>
<linearGradient id="paint1_linear" x1="-245.514" y1="-209.651" x2="149.337" y2="62.8675" gradientUnits="userSpaceOnUse">
<stop stop-color="#B59130"/>
<stop offset="0.5" stop-color="#F1D15F"/>
<stop offset="1" stop-color="#B59130"/>
</linearGradient>
<linearGradient id="paint2_linear" x1="-264.178" y1="-210.956" x2="148.426" y2="71.5325" gradientUnits="userSpaceOnUse">
<stop stop-color="#B59130"/>
<stop offset="0.5" stop-color="#F1D15F"/>
<stop offset="1" stop-color="#B59130"/>
</linearGradient>
<linearGradient id="paint3_linear" x1="-263.508" y1="-190.855" x2="137.989" y2="84.067" gradientUnits="userSpaceOnUse">
<stop stop-color="#B59130"/>
<stop offset="0.5" stop-color="#F1D15F"/>
<stop offset="1" stop-color="#B59130"/>
</linearGradient>
<linearGradient id="paint4_linear" x1="-284.524" y1="-183.25" x2="131.009" y2="102.055" gradientUnits="userSpaceOnUse">
<stop stop-color="#B59130"/>
<stop offset="0.5" stop-color="#F1D15F"/>
<stop offset="1" stop-color="#B59130"/>
</linearGradient>
<linearGradient id="paint5_linear" x1="-282.71" y1="-176.586" x2="128.75" y2="104.885" gradientUnits="userSpaceOnUse">
<stop stop-color="#B59130"/>
<stop offset="0.5" stop-color="#F1D15F"/>
<stop offset="1" stop-color="#B59130"/>
</linearGradient>
<linearGradient id="paint6_linear" x1="-291.064" y1="-155.516" x2="117.032" y2="123.32" gradientUnits="userSpaceOnUse">
<stop stop-color="#B59130"/>
<stop offset="0.5" stop-color="#F1D15F"/>
<stop offset="1" stop-color="#B59130"/>
</linearGradient>
<linearGradient id="paint7_linear" x1="-295.909" y1="-161.737" x2="119.398" y2="123.358" gradientUnits="userSpaceOnUse">
<stop stop-color="#B59130"/>
<stop offset="0.5" stop-color="#F1D15F"/>
<stop offset="1" stop-color="#B59130"/>
</linearGradient>
<linearGradient id="paint8_linear" x1="-295.906" y1="-160.289" x2="119.421" y2="124.821" gradientUnits="userSpaceOnUse">
<stop stop-color="#B59130"/>
<stop offset="0.5" stop-color="#F1D15F"/>
<stop offset="1" stop-color="#B59130"/>
</linearGradient>
<linearGradient id="paint9_linear" x1="-301.04" y1="-160.719" x2="117.917" y2="128.412" gradientUnits="userSpaceOnUse">
<stop stop-color="#B59130"/>
<stop offset="0.5" stop-color="#F1D15F"/>
<stop offset="1" stop-color="#B59130"/>
</linearGradient>
<linearGradient id="paint10_linear" x1="-288.309" y1="-171.046" x2="124.727" y2="111.835" gradientUnits="userSpaceOnUse">
<stop stop-color="#B59130"/>
<stop offset="0.5" stop-color="#F1D15F"/>
<stop offset="1" stop-color="#B59130"/>
</linearGradient>
<linearGradient id="paint11_linear" x1="-288.178" y1="-166.809" x2="124.055" y2="115.342" gradientUnits="userSpaceOnUse">
<stop stop-color="#B59130"/>
<stop offset="0.5" stop-color="#F1D15F"/>
<stop offset="1" stop-color="#B59130"/>
</linearGradient>
<linearGradient id="paint12_linear" x1="-320.565" y1="-163.669" x2="110.505" y2="143.432" gradientUnits="userSpaceOnUse">
<stop stop-color="#B59130"/>
<stop offset="0.5" stop-color="#F1D15F"/>
<stop offset="1" stop-color="#B59130"/>
</linearGradient>
<linearGradient id="paint13_linear" x1="-248.822" y1="-183.1" x2="130.694" y2="87.5303" gradientUnits="userSpaceOnUse">
<stop stop-color="#B59130"/>
<stop offset="0.5" stop-color="#F1D15F"/>
<stop offset="1" stop-color="#B59130"/>
</linearGradient>
<linearGradient id="paint14_linear" x1="-233.491" y1="-208.422" x2="146.613" y2="62.2064" gradientUnits="userSpaceOnUse">
<stop stop-color="#B59130"/>
<stop offset="0.5" stop-color="#F1D15F"/>
<stop offset="1" stop-color="#B59130"/>
</linearGradient>
<linearGradient id="paint15_linear" x1="-303.422" y1="-161.865" x2="117.096" y2="129.194" gradientUnits="userSpaceOnUse">
<stop stop-color="#B59130"/>
<stop offset="0.5" stop-color="#F1D15F"/>
<stop offset="1" stop-color="#B59130"/>
</linearGradient>
<linearGradient id="paint16_linear" x1="-314.95" y1="-164.599" x2="113.446" y2="137.887" gradientUnits="userSpaceOnUse">
<stop stop-color="#B59130"/>
<stop offset="0.5" stop-color="#F1D15F"/>
<stop offset="1" stop-color="#B59130"/>
</linearGradient>
<linearGradient id="paint17_linear" x1="-267.421" y1="-176.591" x2="129.775" y2="96.6138" gradientUnits="userSpaceOnUse">
<stop stop-color="#B59130"/>
<stop offset="0.5" stop-color="#F1D15F"/>
<stop offset="1" stop-color="#B59130"/>
</linearGradient>
<linearGradient id="paint18_linear" x1="-300.075" y1="-186.932" x2="127.747" y2="114.628" gradientUnits="userSpaceOnUse">
<stop stop-color="#B59130"/>
<stop offset="0.5" stop-color="#F1D15F"/>
<stop offset="1" stop-color="#B59130"/>
</linearGradient>
<linearGradient id="paint19_linear" x1="-301.462" y1="-198.858" x2="131.588" y2="111.833" gradientUnits="userSpaceOnUse">
<stop stop-color="#B59130"/>
<stop offset="0.5" stop-color="#F1D15F"/>
<stop offset="1" stop-color="#B59130"/>
</linearGradient>
<linearGradient id="paint20_linear" x1="-289.106" y1="-183.395" x2="130.006" y2="105.934" gradientUnits="userSpaceOnUse">
<stop stop-color="#B59130"/>
<stop offset="0.5" stop-color="#F1D15F"/>
<stop offset="1" stop-color="#B59130"/>
</linearGradient>
<linearGradient id="paint21_linear" x1="-291.415" y1="-206.656" x2="138.58" y2="98.5337" gradientUnits="userSpaceOnUse">
<stop stop-color="#B59130"/>
<stop offset="0.5" stop-color="#F1D15F"/>
<stop offset="1" stop-color="#B59130"/>
</linearGradient>
<linearGradient id="paint22_linear" x1="-262.343" y1="-204.644" x2="145.334" y2="73.8926" gradientUnits="userSpaceOnUse">
<stop stop-color="#B59130"/>
<stop offset="0.5" stop-color="#F1D15F"/>
<stop offset="1" stop-color="#B59130"/>
</linearGradient>
<linearGradient id="paint23_linear" x1="-285.827" y1="-214.251" x2="143.627" y2="89.9843" gradientUnits="userSpaceOnUse">
<stop stop-color="#B59130"/>
<stop offset="0.5" stop-color="#F1D15F"/>
<stop offset="1" stop-color="#B59130"/>
</linearGradient>
<linearGradient id="paint24_linear" x1="-243.388" y1="-227.418" x2="160.027" y2="48.4968" gradientUnits="userSpaceOnUse">
<stop stop-color="#B59130"/>
<stop offset="0.5" stop-color="#F1D15F"/>
<stop offset="1" stop-color="#B59130"/>
</linearGradient>
<linearGradient id="paint25_linear" x1="-285.635" y1="-126.855" x2="103.888" y2="144.494" gradientUnits="userSpaceOnUse">
<stop stop-color="#B59130"/>
<stop offset="0.5" stop-color="#F1D15F"/>
<stop offset="1" stop-color="#B59130"/>
</linearGradient>
<linearGradient id="paint26_linear" x1="-293.06" y1="-112.425" x2="91.9453" y2="162.983" gradientUnits="userSpaceOnUse">
<stop stop-color="#B59130"/>
<stop offset="0.5" stop-color="#F1D15F"/>
<stop offset="1" stop-color="#B59130"/>
</linearGradient>
<linearGradient id="paint27_linear" x1="-287.684" y1="-133.13" x2="106.488" y2="139.178" gradientUnits="userSpaceOnUse">
<stop stop-color="#B59130"/>
<stop offset="0.5" stop-color="#F1D15F"/>
<stop offset="1" stop-color="#B59130"/>
</linearGradient>
<linearGradient id="paint28_linear" x1="-237.828" y1="-214.086" x2="151.351" y2="57.2211" gradientUnits="userSpaceOnUse">
<stop stop-color="#B59130"/>
<stop offset="0.5" stop-color="#F1D15F"/>
<stop offset="1" stop-color="#B59130"/>
</linearGradient>
<linearGradient id="paint29_linear" x1="-253.734" y1="-218.866" x2="154.197" y2="59.8516" gradientUnits="userSpaceOnUse">
<stop stop-color="#B59130"/>
<stop offset="0.5" stop-color="#F1D15F"/>
<stop offset="1" stop-color="#B59130"/>
</linearGradient>
<linearGradient id="paint30_linear" x1="-227.519" y1="-235.873" x2="166.595" y2="36.4076" gradientUnits="userSpaceOnUse">
<stop stop-color="#B59130"/>
<stop offset="0.5" stop-color="#F1D15F"/>
<stop offset="1" stop-color="#B59130"/>
</linearGradient>
<linearGradient id="paint31_linear" x1="-281.995" y1="-114.9" x2="96.1307" y2="155.739" gradientUnits="userSpaceOnUse">
<stop stop-color="#B59130"/>
<stop offset="0.5" stop-color="#F1D15F"/>
<stop offset="1" stop-color="#B59130"/>
</linearGradient>
<linearGradient id="paint32_linear" x1="-287.861" y1="-144.031" x2="114.17" y2="131.165" gradientUnits="userSpaceOnUse">
<stop stop-color="#B59130"/>
<stop offset="0.5" stop-color="#F1D15F"/>
<stop offset="1" stop-color="#B59130"/>
</linearGradient>
<linearGradient id="paint33_linear" x1="-284.361" y1="-169.314" x2="125.278" y2="110.669" gradientUnits="userSpaceOnUse">
<stop stop-color="#B59130"/>
<stop offset="0.5" stop-color="#F1D15F"/>
<stop offset="1" stop-color="#B59130"/>
</linearGradient>
<linearGradient id="paint34_linear" x1="-289.952" y1="-141.285" x2="110.27" y2="133.08" gradientUnits="userSpaceOnUse">
<stop stop-color="#B59130"/>
<stop offset="0.5" stop-color="#F1D15F"/>
<stop offset="1" stop-color="#B59130"/>
</linearGradient>
<linearGradient id="paint35_linear" x1="-264.817" y1="-180.689" x2="132.096" y2="92.4225" gradientUnits="userSpaceOnUse">
<stop stop-color="#B59130"/>
<stop offset="0.5" stop-color="#F1D15F"/>
<stop offset="1" stop-color="#B59130"/>
</linearGradient>
<linearGradient id="paint36_linear" x1="-247.288" y1="-191.576" x2="136.815" y2="79.2201" gradientUnits="userSpaceOnUse">
<stop stop-color="#B59130"/>
<stop offset="0.5" stop-color="#F1D15F"/>
<stop offset="1" stop-color="#B59130"/>
</linearGradient>
<linearGradient id="paint37_linear" x1="-285.242" y1="-164.003" x2="122.939" y2="114.891" gradientUnits="userSpaceOnUse">
<stop stop-color="#B59130"/>
<stop offset="0.5" stop-color="#F1D15F"/>
<stop offset="1" stop-color="#B59130"/>
</linearGradient>
<linearGradient id="paint38_linear" x1="-288.34" y1="-129.092" x2="105.031" y2="142.995" gradientUnits="userSpaceOnUse">
<stop stop-color="#B59130"/>
<stop offset="0.5" stop-color="#F1D15F"/>
<stop offset="1" stop-color="#B59130"/>
</linearGradient>
</defs>
</svg>
