<svg width="421" height="83" viewBox="0 0 421 83" fill="none" xmlns="http://www.w3.org/2000/svg">
<path d="M22.38 0H398.37H398.38V0.01C404.54 0.01 410.14 2.53 414.19 6.59C418.23 10.63 420.74 16.21 420.74 22.36H420.75V22.38V60.11V60.12H420.74C420.74 66.28 418.22 71.87 414.17 75.93C410.13 79.97 404.54 82.48 398.4 82.48V82.49H398.38H22.38H22.37V82.48C16.21 82.48 10.62 79.96 6.56 75.91C2.52 71.87 0.01 66.28 0.01 60.13H0V60.11V22.38V22.37H0.01C0.01 16.21 2.53 10.62 6.58 6.56C10.62 2.52 16.2 0.01 22.35 0.01V0H22.38Z" fill="white"/>
<path fill-rule="evenodd" clip-rule="evenodd" d="M396.65 5.30999V5.28999H398.38C402.92 5.28999 407.23 7.10999 410.43 10.31C413.63 13.51 415.46 17.82 415.46 22.36V24.09H415.45V58.4H415.46V60.13C415.46 64.67 413.64 68.98 410.44 72.18C407.24 75.38 402.93 77.2 398.39 77.21H396.66V77.2H24.1V77.21H22.37C17.83 77.21 13.52 75.39 10.32 72.19C7.11999 68.99 5.29999 64.68 5.28999 60.14V58.41H5.30999V24.1H5.28999V22.37C5.28999 17.83 7.10999 13.52 10.31 10.32C13.51 7.11999 17.82 5.28999 22.36 5.28999H24.09V5.29999H396.65V5.30999Z" fill="white"/>
<path fill-rule="evenodd" clip-rule="evenodd" d="M127.12 23.38H105.45C101.59 23.38 98.46 26.74 98.46 30.87V56.58C98.46 57.56 99.19 58.36 100.11 58.36H103.79C104.7 58.36 105.45 57.57 105.45 56.59V43.36H127.12C128.03 43.36 128.78 42.56 128.78 41.58V25.15C128.78 24.17 128.03 23.38 127.12 23.38ZM65.78 30.15C65.78 29.17 66.53 28.38 67.44 28.38H87.45C88.36 28.38 89.11 27.58 89.11 26.6V25.15C89.11 24.16 88.37 23.37 87.45 23.37H65.78C61.92 23.37 58.79 26.73 58.79 30.86V56.57C58.79 57.55 59.52 58.35 60.45 58.35H87.45C88.36 58.35 89.11 57.55 89.11 56.58V55.14C89.11 54.15 88.37 53.37 87.45 53.37H67.45C66.54 53.37 65.79 52.57 65.79 51.59V43.37H82.79C83.72 43.37 84.45 42.57 84.45 41.59V40.15C84.45 39.17 83.72 38.38 82.79 38.38H65.79V30.15H65.78ZM144.11 51.59C144.11 52.57 144.86 53.37 145.77 53.37H165.79C166.7 53.37 167.45 54.15 167.45 55.14L167.44 56.58C167.44 57.55 166.7 58.35 165.79 58.35H138.77C137.86 58.35 137.11 57.55 137.11 56.58V30.87C137.11 26.74 140.25 23.38 144.11 23.38H165.79C166.7 23.38 167.45 24.17 167.45 25.16L167.44 26.61C167.44 27.59 166.7 28.39 165.79 28.39H145.77C144.86 28.39 144.11 29.18 144.11 30.16V51.59ZM41.48 30.15C41.48 29.17 40.74 28.38 39.82 28.38H26.8C25.88 28.38 25.15 29.17 25.15 30.15V56.58C25.15 57.56 24.4 58.36 23.49 58.36H19.8C18.89 58.36 18.14 57.56 18.14 56.59V30.87C18.14 26.74 21.27 23.38 25.14 23.38H46.82C47.73 23.38 48.48 24.17 48.48 25.16L48.47 56.58C48.47 57.56 47.72 58.36 46.81 58.36H43.12C42.21 58.36 41.47 57.56 41.47 56.59V30.15H41.48ZM206.12 30.87C206.12 26.74 202.99 23.38 199.13 23.38H177.46C176.54 23.38 175.8 24.17 175.8 25.16V56.59C175.8 57.56 176.54 58.36 177.46 58.36H204.46C205.38 58.36 206.12 57.56 206.12 56.59V30.87ZM199.13 51.59C199.13 52.57 198.38 53.37 197.47 53.37H184.46C183.54 53.37 182.8 52.57 182.8 51.59V30.15C182.8 29.17 183.54 28.38 184.46 28.38H197.47C198.38 28.38 199.13 29.17 199.13 30.15V51.59ZM285.44 30.87C285.44 26.74 282.3 23.38 278.44 23.38H256.76C255.84 23.38 255.11 24.17 255.11 25.16V56.58C255.11 57.56 255.84 58.35 256.76 58.35H260.44C261.36 58.35 262.1 57.56 262.1 56.58V43.36H278.43V56.57C278.43 57.55 279.17 58.35 280.09 58.35H283.77C284.68 58.35 285.43 57.55 285.43 56.57V30.87H285.44ZM278.45 38.37H262.12V30.15C262.12 29.17 262.86 28.38 263.78 28.38H276.79C277.7 28.38 278.45 29.17 278.45 30.15V38.37ZM240.45 23.38C243.4 23.38 245.78 25.94 245.78 29.09L245.79 56.57C245.79 57.55 245.04 58.35 244.13 58.35H240.45C239.52 58.35 238.79 57.55 238.79 56.57V43.36H222.46V56.57C222.46 57.55 221.71 58.35 220.8 58.35H217.13C216.2 58.35 215.47 57.55 215.47 56.58V25.15C215.47 24.16 216.21 23.37 217.13 23.37H220.8C221.71 23.37 222.46 24.16 222.46 25.15V38.36H238.79V25.15C238.79 24.16 239.52 23.38 240.45 23.38ZM121.78 36.58C121.78 37.57 121.03 38.36 120.12 38.36H105.45V30.14C105.45 29.16 106.2 28.37 107.11 28.37H120.12C121.03 28.37 121.78 29.16 121.78 30.14V36.58Z" fill="black"/>
<path fill-rule="evenodd" clip-rule="evenodd" d="M298.17 26.87L308.51 20.89L318.86 26.87V38.82L308.51 44.79L298.17 38.82V26.87Z" fill="black"/>
<path d="M390.7 46.53L386.29 35.26L381.96 46.53H390.7ZM402.61 58.55H395.57L392.77 51.65H379.97L377.33 58.55H370.47L382.95 28.18H389.79L402.61 58.55ZM361.1 58.55V28.18H367.56V58.55H361.1ZM335.47 45.31V53.43H341.45C343.78 53.43 345.26 53.37 345.89 53.25C346.85 53.09 347.63 52.68 348.24 52.04C348.84 51.4 349.15 50.53 349.15 49.46C349.15 48.55 348.91 47.78 348.45 47.14C347.98 46.5 347.31 46.04 346.43 45.75C345.55 45.46 343.63 45.32 340.7 45.32H335.47V45.31ZM335.47 33.23V40.25H339.71C342.23 40.25 343.8 40.21 344.41 40.14C345.52 40.02 346.39 39.66 347.02 39.06C347.65 38.46 347.97 37.67 347.97 36.68C347.97 35.74 347.7 34.98 347.16 34.39C346.61 33.8 345.8 33.45 344.72 33.33C344.08 33.26 342.24 33.22 339.19 33.22H335.47V33.23ZM329 28.18H341.8C344.33 28.18 346.23 28.28 347.48 28.48C348.72 28.68 349.84 29.09 350.82 29.73C351.8 30.37 352.62 31.21 353.27 32.27C353.93 33.33 354.25 34.51 354.25 35.82C354.25 37.24 353.85 38.55 353.04 39.74C352.23 40.93 351.13 41.82 349.75 42.41C351.7 42.95 353.2 43.87 354.25 45.16C355.3 46.46 355.82 47.99 355.82 49.74C355.82 51.12 355.49 52.46 354.81 53.77C354.13 55.07 353.21 56.12 352.03 56.9C350.86 57.68 349.41 58.16 347.69 58.34C346.62 58.45 344.01 58.52 339.89 58.55H329V28.18Z" fill="black"/>
</svg>
