<svg width="39" height="39" viewBox="0 0 39 39" fill="white" xmlns="http://www.w3.org/2000/svg">
<path d="M34.9345 15.7778L8.32063 0.565084C7.6739 0.195353 6.93808 0 6.19307 0C5.43835 0 4.69438 0.200206 4.04159 0.578951C2.72422 1.3432 1.90588 2.76406 1.90588 4.28719V34.7128C1.90588 36.2358 2.72422 37.6566 4.04124 38.4209C4.69404 38.8 5.43818 39.0002 6.1929 39.0002C6.93756 39.0002 7.67338 38.8046 8.32046 38.4349L34.934 23.222C36.2663 22.4604 37.0938 21.0343 37.0938 19.4999C37.0938 17.9655 36.2666 16.5395 34.9345 15.7778ZM23.4018 12.1807L19.7476 17.2706L11.007 5.09564L23.4018 12.1807ZM6.02528 36.3852C5.78763 36.3621 5.55449 36.2928 5.34631 36.172C4.82803 35.8712 4.50596 35.312 4.50596 34.7128V4.28701C4.50596 3.68778 4.82803 3.12859 5.34648 2.82785C5.55397 2.70738 5.7852 2.63561 6.02285 2.61117L18.1472 19.4999L6.02528 36.3852ZM11.007 33.9044L19.7476 21.7292L23.4018 26.8191L11.007 33.9044ZM33.644 20.9644L25.6711 25.5219L21.3479 19.4999L25.6711 13.478L33.644 18.0354C34.1682 18.3351 34.4939 18.8962 34.4939 19.4999C34.4939 20.1036 34.1684 20.6649 33.644 20.9644Z" />
</svg>
