<?xml version="1.0" encoding="iso-8859-1"?>
<!-- Generator: Adobe Illustrator 19.0.0, SVG Export Plug-In . SVG Version: 6.00 Build 0)  -->
<svg version="1.1" id="Capa_1" xmlns="http://www.w3.org/2000/svg" xmlns:xlink="http://www.w3.org/1999/xlink" x="0px" y="0px"
	 viewBox="0 0 397.324 397.324" style="enable-background:new 0 0 397.324 397.324;" xml:space="preserve">
<g>
	<g>
		<path d="M287.282,222.064c-1.04-6.352-3.952-12.48-8.848-17.376c-7.056-7.056-16.576-9.968-25.776-9.024l49.776-49.776
			c12.448-12.448,12.448-32.816,0-45.248c-12.448-12.448-32.816-12.448-45.248,0L149.538,208.288l0.016-16.016
			c0-17.648-7.152-33.632-18.72-45.2c-8.368-8.368-19.056-14.384-31.008-17.104c-0.816-0.224-1.696-0.304-2.608-0.304
			c-6.432-0.016-11.648,5.2-11.648,11.648l-0.016,152.384c0,0.016,0,0.064,0,0.112v2.512l0.112-0.096
			c0.592,25.664,10.608,51.168,30.208,70.752c40.464,40.464,106.032,40.464,146.496,0l37.216-37.216
			c8.32-8.32,11.04-20.112,8.224-30.768L287.282,222.064z M288.274,318.432l-37.216,37.216c-34.16,34.16-89.712,34.16-123.856,0
			c-15.92-15.92-24.992-37.168-25.536-59.808l-0.096-148.784c6.72,2.368,12.848,6.24,17.936,11.344
			c9.056,9.056,14.048,21.072,14.032,33.888v29.568c0,2.752,1.616,5.264,4.128,6.384c5.856,2.624,12.912,1.616,17.728-3.2
			l113.104-113.104c6.24-6.24,16.4-6.24,22.624,0c6.24,6.24,6.24,16.4,0,22.624l-65.648,65.648
			c-2.384,2.384-3.024,6.032-1.568,9.088c1.456,3.056,4.672,4.864,8.032,4.528l22.352-2.256c2.864-0.288,8.32-0.096,12.848,4.432
			c2.912,2.912,3.984,6.336,4.368,8.672l20.768,78.432C293.762,308.72,292.258,314.448,288.274,318.432z"/>
	</g>
</g>
<g>
	<g>
		<polygon points="181.266,0 169.954,11.312 198.914,40.272 117.538,40.272 117.538,56.272 198.914,56.272 170.018,85.184 
			181.33,96.496 229.538,48.272 		"/>
	</g>
</g>
<g>
</g>
<g>
</g>
<g>
</g>
<g>
</g>
<g>
</g>
<g>
</g>
<g>
</g>
<g>
</g>
<g>
</g>
<g>
</g>
<g>
</g>
<g>
</g>
<g>
</g>
<g>
</g>
<g>
</g>
</svg>
